<?xml version="1.0" standalone="no"?>
<!DOCTYPE svg PUBLIC "-//W3C//DTD SVG 20010904//EN"
 "http://www.w3.org/TR/2001/REC-SVG-20010904/DTD/svg10.dtd">
<svg version="1.0" xmlns="http://www.w3.org/2000/svg"
 width="352.000000pt" height="352.000000pt" viewBox="0 0 352.000000 352.000000"
 preserveAspectRatio="xMidYMid meet">
<metadata>
Created by potrace 1.11, written by Peter Selinger 2001-2013
</metadata>
<g transform="translate(0.000000,352.000000) scale(0.100000,-0.100000)"
fill="#000000" stroke="none">
<path d="M1450 3153 c-226 -310 -512 -756 -702 -1093 -141 -251 -350 -655
-400 -775 -9 -22 -24 -58 -33 -80 -30 -73 -44 -175 -41 -295 10 -368 191 -665
403 -663 95 1 174 57 228 162 28 57 155 525 210 778 2 10 20 88 40 173 63 269
172 752 181 800 3 14 10 45 15 70 6 25 13 54 15 65 2 11 6 29 9 40 3 11 21 94
40 185 19 91 37 174 39 185 3 11 9 43 15 70 6 28 13 61 16 75 3 14 8 39 11 55
3 17 18 94 34 172 31 148 44 233 38 233 -2 0 -55 -71 -118 -157z"/>
<path d="M1857 3118 c-84 -17 -124 -55 -132 -124 -10 -73 23 -133 137 -253 61
-64 283 -310 326 -361 319 -380 468 -585 709 -976 50 -81 130 -213 138 -229 6
-11 24 -42 41 -70 32 -56 51 -89 108 -193 22 -39 41 -70 43 -68 7 7 -108 418
-174 621 -50 155 -152 430 -208 560 -163 380 -430 847 -543 945 -121 107 -321
174 -445 148z"/>
<path d="M2250 1667 c-76 -35 -610 -301 -700 -349 -47 -25 -125 -67 -175 -93
-49 -26 -92 -49 -95 -52 -5 -4 50 2 110 12 14 2 50 7 80 10 30 3 66 8 80 10
29 5 86 13 150 20 56 7 105 13 195 25 39 5 90 12 115 15 44 5 111 15 140 20 8
1 40 6 70 10 79 10 201 34 230 46 70 27 65 141 -9 258 -55 86 -110 105 -191
68z"/>
</g>
</svg>
